 <svg version="1.0" xmlns="http://www.w3.org/2000/svg" width="700.000000pt" height="690.000000pt" viewBox="0 0 700.000000 690.000000" preserveAspectRatio="xMidYMid meet">
<metadata>
Created by potrace 1.12, written by Peter Selinger 2001-2015
</metadata>
<g transform="translate(0.000000,690.000000) scale(0.100000,-0.100000)" fill="#000000" stroke="none">
<path d="M3845 6890 c3 -5 42 -10 85 -10 43 0 82 5 85 10 4 6 -27 10 -85 10
-58 0 -89 -4 -85 -10z"></path>
<path d="M3720 6871 c-87 -28 -170 -75 -233 -131 -146 -131 -223 -315 -215
-516 3 -93 6 -107 41 -177 63 -128 246 -301 433 -410 94 -55 93 -55 43 -139
-24 -40 -70 -113 -103 -163 -70 -107 -106 -180 -106 -218 0 -15 -17 -55 -38
-90 -83 -136 -157 -247 -166 -247 -6 0 -20 10 -33 22 -32 30 -118 36 -178 14
-100 -39 -154 -145 -163 -320 -4 -92 -9 -115 -28 -143 -24 -35 -64 -145 -64
-175 0 -9 -13 -38 -30 -64 -98 -155 -71 -308 80 -454 37 -36 84 -92 105 -125
22 -33 86 -106 142 -163 l104 -102 -25 -33 c-55 -72 -38 -155 49 -242 25 -26
45 -48 43 -49 -2 -1 -23 -8 -46 -15 -61 -17 -125 -80 -166 -162 -34 -67 -39
-87 -71 -259 -15 -82 -69 -215 -102 -252 -14 -16 -14 -18 1 -24 9 -3 67 -5
129 -3 98 4 119 8 169 32 73 36 133 104 194 220 72 134 157 197 222 163 47
-24 107 -30 159 -16 46 13 46 13 70 -16 64 -76 93 -134 112 -222 41 -187 130
-292 294 -347 89 -29 175 -47 188 -39 5 3 -2 19 -15 35 -35 41 -50 120 -42
220 18 241 19 285 2 342 -9 30 -27 69 -41 86 -14 16 -22 32 -17 35 5 3 35 10
68 15 150 26 244 41 304 51 36 6 87 18 113 26 56 19 122 77 132 117 9 35 -19
113 -46 127 -22 12 -25 30 -6 30 28 0 163 91 224 150 63 62 135 170 148 223
11 42 32 52 109 53 91 1 150 26 216 94 61 63 97 161 85 236 -7 52 -53 110
-102 131 l-33 13 0 88 c-1 94 -21 200 -42 217 -7 5 -45 48 -85 95 -39 47 -115
128 -167 180 -53 52 -96 100 -96 106 0 14 -103 97 -225 180 -205 139 -440 232
-691 274 -256 42 -440 44 -625 5 -86 -18 -99 -19 -99 -2 0 21 101 187 120 197
11 6 73 13 139 17 70 3 121 10 121 16 0 6 -43 8 -120 4 -72 -4 -120 -2 -120 3
0 5 16 34 35 64 46 72 169 282 216 371 21 39 45 71 53 73 9 2 53 -34 104 -85
136 -138 270 -232 452 -316 202 -94 370 -136 670 -167 107 -11 219 -25 249
-30 67 -12 71 -12 71 -1 0 10 -161 36 -360 56 -191 20 -242 29 -385 72 -243
72 -558 255 -673 392 -44 52 -130 122 -166 135 -19 7 -19 6 -3 -12 17 -18 15
-24 -49 -138 -97 -174 -97 -174 -115 -174 -30 0 -253 156 -342 240 -149 140
-196 225 -204 366 -18 314 197 593 500 649 20 4 37 11 37 16 0 14 -50 10 -110
-10z m643 -1770 c195 -41 284 -71 447 -153 137 -68 367 -224 405 -273 17 -23
20 -42 20 -148 0 -131 -10 -163 -69 -234 l-24 -29 33 -69 c74 -151 66 -426
-16 -586 -11 -22 -17 -44 -14 -49 3 -5 40 -16 83 -26 135 -30 128 -20 80 -116
-51 -102 -160 -215 -258 -267 -36 -19 -78 -45 -95 -57 -44 -33 -129 -61 -220
-72 -86 -11 -261 -8 -335 4 -50 9 -215 9 -270 1 -19 -2 -73 -15 -120 -27 -150
-40 -322 -17 -430 59 -33 22 -56 47 -58 59 -2 12 -10 22 -18 22 -8 0 -32 18
-54 40 -22 22 -44 40 -50 40 -14 0 -271 260 -308 313 -36 51 -31 57 26 28 61
-31 154 -51 239 -51 l80 0 48 -62 c41 -53 49 -71 52 -111 4 -68 35 -132 75
-157 39 -23 104 -26 151 -6 52 21 113 98 124 154 l8 47 80 11 c204 29 396 166
457 326 28 76 41 155 33 216 -8 61 -21 64 -40 8 -18 -53 -117 -150 -188 -186
-100 -50 -157 -50 -292 1 -30 11 -55 24 -55 28 0 4 22 16 49 28 67 28 102 81
108 165 3 51 0 69 -16 95 -44 71 -165 95 -256 52 -49 -23 -135 -111 -135 -137
0 -10 18 4 45 35 97 111 225 134 307 56 53 -50 45 -153 -16 -211 -43 -41 -119
-76 -153 -69 -16 3 -36 1 -45 -4 -26 -14 -195 -40 -252 -39 -156 3 -292 75
-348 185 -82 159 -72 350 22 426 71 57 201 58 316 1 51 -25 74 -26 59 -3 -3 6
-14 11 -24 11 -45 0 -69 68 -52 147 22 103 51 163 110 223 63 64 111 82 157
61 74 -33 70 -201 -7 -334 -40 -68 -66 -95 -114 -119 -52 -27 -52 -26 -29 -43
26 -20 33 -19 27 4 -3 13 2 21 15 25 11 4 41 29 67 57 113 121 152 322 79 409
-22 25 -33 30 -72 30 -129 0 -261 -187 -262 -368 l0 -54 -32 9 c-18 4 -64 8
-103 8 -96 0 -159 -31 -200 -99 -27 -44 -30 -59 -33 -150 -3 -84 0 -111 17
-161 38 -105 39 -97 -5 -90 -22 4 -59 17 -84 28 -83 40 -119 155 -86 270 35
121 95 195 300 366 80 67 98 90 216 270 71 108 137 206 147 218 13 17 43 28
113 43 82 17 122 19 295 16 175 -4 219 -8 348 -35z m-1035 -318 c14 -11 27
-24 29 -29 2 -6 -14 -30 -35 -54 l-38 -43 -17 27 c-17 25 -57 37 -57 16 0 -5
5 -10 10 -10 6 0 10 -4 10 -10 0 -5 -6 -10 -13 -10 -17 0 -52 -38 -44 -47 4
-3 15 1 25 10 20 19 48 22 57 8 3 -5 -32 -41 -77 -79 -46 -38 -96 -84 -112
-100 -35 -37 -46 -33 -46 17 0 154 71 291 167 321 41 14 112 5 141 -17z m2327
-832 c62 -28 79 -53 83 -125 3 -52 0 -71 -22 -114 -59 -117 -148 -175 -259
-170 l-62 3 2 130 c1 72 5 154 8 183 6 52 7 53 63 82 67 34 128 38 187 11z
m-1871 -621 c26 -12 50 -29 53 -37 6 -16 -40 -68 -79 -89 -35 -18 -91 -18
-127 1 -44 22 -87 128 -60 147 26 17 161 3 213 -22z m-287 -252 c89 -80 102
-88 197 -117 92 -28 239 -29 356 0 125 30 207 33 374 14 195 -22 317 -10 489
46 45 15 63 3 73 -47 8 -42 -31 -87 -99 -112 -29 -11 -142 -34 -252 -52 -251
-40 -244 -38 -257 -66 -9 -20 -5 -36 27 -98 34 -67 38 -82 38 -153 0 -43 -6
-120 -13 -170 -12 -86 -10 -154 6 -227 7 -29 6 -29 -30 -23 -100 16 -221 104
-265 193 -13 26 -35 90 -48 143 -24 100 -61 172 -120 236 l-33 36 -88 -6 c-69
-6 -95 -4 -126 9 -49 21 -71 20 -123 -3 -59 -27 -112 -87 -164 -183 -50 -94
-107 -161 -159 -188 -41 -21 -126 -40 -177 -40 -41 0 -41 6 1 105 14 33 34
110 45 170 11 61 29 136 41 167 27 74 95 149 158 176 85 37 89 62 23 136 -75
82 -87 119 -55 164 l15 22 44 -31 c24 -17 79 -63 122 -101z"></path>
<path d="M3715 5051 c-44 -20 -125 -87 -125 -102 0 -6 20 4 44 20 86 60 152
72 236 45 23 -7 24 -6 11 10 -39 47 -101 57 -166 27z"></path>
<path d="M4388 4963 c-40 -6 -34 -19 10 -27 45 -7 98 -54 139 -123 15 -25 29
-41 31 -34 9 28 -24 107 -61 148 -40 44 -49 46 -119 36z"></path>
<path d="M4221 4675 c-53 -48 -82 -121 -88 -220 -7 -100 9 -179 47 -239 l30
-47 -26 -9 c-14 -6 -31 -10 -38 -10 -7 0 -21 -7 -32 -16 -18 -14 -17 -15 16
-9 98 16 247 17 314 1 38 -9 71 -14 74 -11 6 6 -61 35 -81 35 -26 0 -27 13 -3
44 38 51 58 122 58 213 0 100 -22 178 -65 235 -40 52 -69 68 -124 68 -35 0
-50 -6 -82 -35z m169 -24 c96 -101 109 -327 25 -453 -26 -39 -28 -40 -73 -35
-122 14 -135 25 -174 151 -52 170 27 376 144 376 35 0 47 -6 78 -39z"></path>
<path d="M4251 4511 c-15 -16 -33 -47 -39 -69 -24 -81 -9 -203 30 -238 17 -17
18 -16 1 17 -21 41 -25 161 -5 181 20 20 40 -6 24 -32 -36 -57 20 -190 80
-190 29 0 65 42 78 90 11 41 5 168 -8 156 -6 -6 -31 24 -32 38 0 5 9 1 20 -9
34 -31 25 8 -11 50 -26 29 -38 35 -71 35 -31 0 -46 -6 -67 -29z m90 -32 c26
-26 21 -59 -13 -78 -24 -14 -28 -14 -47 3 -27 25 -27 61 1 80 29 21 34 20 59
-5z"></path>
<path d="M3624 4643 c-51 -53 -84 -126 -84 -190 0 -28 5 -55 10 -58 6 -4 10
16 10 53 0 52 5 67 35 112 19 29 35 56 35 61 0 11 34 29 54 29 20 0 82 -58 72
-67 -4 -4 -11 -1 -16 7 -8 13 -12 11 -25 -7 -11 -16 -26 -23 -48 -23 -42 0
-53 -8 -72 -53 -20 -49 -19 -90 4 -118 16 -20 23 -22 47 -14 38 14 91 85 99
135 4 22 13 47 21 55 16 16 11 55 -12 93 -11 17 -24 22 -54 22 -32 0 -46 -7
-76 -37z"></path>
<path d="M3604 3116 c59 -48 180 -56 228 -16 23 20 23 20 -21 5 -54 -19 -95
-18 -146 1 -22 8 -49 18 -60 20 -20 5 -20 5 -1 -10z"></path>
<path d="M3170 4700 c0 -5 5 -10 10 -10 6 0 10 5 10 10 0 6 -4 10 -10 10 -5 0
-10 -4 -10 -10z"></path>
<path d="M5505 3858 c-63 -35 -87 -88 -40 -88 14 0 34 -9 46 -21 21 -21 20
-44 -7 -86 -20 -31 -17 -39 5 -19 31 28 46 73 33 101 -10 21 -9 25 4 25 24 0
0 26 -31 34 -34 9 -31 22 6 35 70 24 109 2 109 -62 0 -47 16 -48 24 -2 8 39
-5 69 -34 85 -25 13 -90 12 -115 -2z"></path>
<path d="M4030 6884 c0 -5 46 -19 103 -30 106 -22 203 -57 332 -120 78 -38 93
-54 50 -54 -14 0 -25 -4 -25 -9 0 -12 118 -24 219 -22 112 2 303 -16 418 -39
107 -21 241 -78 333 -140 135 -92 308 -283 425 -468 22 -35 72 -104 111 -155
39 -51 82 -112 95 -137 16 -32 24 -40 27 -27 4 20 -25 72 -86 152 -24 31 -41
59 -38 62 10 10 98 -27 179 -76 253 -154 397 -366 397 -584 0 -202 -105 -397
-254 -470 -107 -52 -259 -71 -387 -47 -89 16 -249 71 -275 94 l-24 21 26 179
c22 157 24 200 10 185 -5 -5 -56 -358 -56 -386 0 -15 8 -22 28 -26 15 -3 65
-20 112 -37 342 -128 651 -48 773 200 95 192 87 406 -22 589 -85 144 -277 302
-441 365 -41 15 -82 31 -90 36 -8 4 -55 65 -105 136 -106 152 -275 330 -381
404 -183 126 -351 173 -684 189 l-185 9 -125 65 c-69 36 -175 81 -237 101
-114 36 -223 56 -223 40z"></path>
<path d="M4425 6680 c3 -5 10 -10 16 -10 5 0 9 5 9 10 0 6 -7 10 -16 10 -8 0
-12 -4 -9 -10z"></path>
<path d="M3820 6001 c0 -4 21 -14 48 -21 26 -6 53 -14 60 -16 27 -8 -1 17 -35
31 -40 17 -73 20 -73 6z"></path>
<path d="M1424 5789 c-44 -13 -77 -52 -83 -102 l-6 -42 -71 -7 c-39 -4 -119
-19 -178 -33 -568 -134 -955 -592 -934 -1105 l3 -85 -60 -3 c-32 -2 -65 -8
-72 -14 -16 -13 -17 -60 -1 -76 9 -9 119 -12 433 -12 l421 0 54 -55 c92 -93
240 -180 365 -214 50 -14 65 -14 65 -1 0 6 -7 10 -15 10 -28 0 -178 62 -246
101 -75 43 -169 124 -169 145 0 12 47 14 288 14 l288 0 57 -34 c43 -26 54 -30
47 -16 -6 10 -15 22 -20 25 -34 21 7 25 218 23 l227 -3 3 -53 c3 -51 1 -55
-37 -94 -23 -22 -41 -47 -41 -56 0 -8 -8 -21 -17 -29 -12 -9 -8 -9 12 2 58 31
108 -10 125 -101 4 -27 11 -59 15 -70 6 -20 2 -22 -57 -28 -94 -11 -210 -53
-309 -113 -49 -29 -90 -53 -93 -53 -2 0 -14 19 -26 42 -12 24 -33 56 -47 72
-38 46 -65 105 -67 152 -2 49 -8 59 -31 50 -11 -4 -13 -10 -6 -23 6 -10 13
-35 16 -55 3 -21 26 -66 50 -100 24 -35 56 -86 69 -113 24 -47 25 -55 14 -111
-16 -86 8 -183 80 -326 71 -141 134 -235 232 -346 42 -48 94 -114 115 -147 88
-136 365 -385 638 -572 49 -34 94 -66 99 -71 9 -9 -63 -206 -279 -772 -24 -63
-62 -191 -85 -285 -33 -135 -48 -177 -70 -203 -15 -18 -37 -50 -48 -72 -21
-41 -28 -106 -10 -95 5 3 10 15 10 27 0 24 49 118 62 118 4 0 8 -18 8 -40 0
-22 5 -40 10 -40 6 0 10 18 10 40 0 22 4 59 9 82 6 24 19 90 31 148 22 106 74
267 150 460 23 58 70 184 106 280 36 96 73 195 83 220 10 25 27 70 36 100 17
50 51 138 140 355 108 262 161 361 257 481 75 92 77 125 3 42 -109 -125 -178
-255 -315 -603 -46 -115 -85 -212 -86 -214 -10 -13 -71 25 -234 147 -201 151
-314 250 -427 375 -65 71 -123 165 -123 196 0 6 -8 11 -18 11 -21 0 -129 123
-195 222 -91 136 -177 343 -177 423 0 98 26 130 161 200 86 45 217 90 228 80
2 -3 -11 -20 -31 -38 -32 -29 -88 -122 -88 -147 0 -22 17 -8 29 25 20 55 108
141 159 155 89 23 204 -38 330 -176 97 -105 226 -303 209 -320 -3 -3 -29 2
-58 10 -62 19 -69 19 -69 6 0 -5 19 -14 43 -20 49 -14 255 -99 341 -142 66
-33 126 -78 126 -93 0 -5 -16 -20 -36 -33 -19 -12 -32 -27 -29 -32 3 -5 22 1
43 15 45 29 139 55 204 55 26 0 48 5 48 10 0 13 -105 13 -153 -1 -36 -10 -40
-8 -85 31 -45 40 -174 109 -276 147 -45 16 -52 24 -87 90 -65 125 -131 215
-234 319 -72 73 -118 111 -162 133 -34 17 -70 31 -78 31 -17 0 -54 71 -55 105
0 11 -9 39 -20 63 -14 32 -29 47 -57 58 l-37 16 32 27 c23 19 34 39 42 76 5
28 9 59 7 70 -2 20 5 20 387 23 345 2 392 4 408 19 23 20 23 45 0 66 -12 11
-41 17 -92 19 l-75 3 5 40 c11 87 0 226 -25 328 -84 331 -330 601 -689 753
-83 36 -291 94 -336 94 -37 0 -53 14 -57 51 -8 81 -88 132 -169 108z m94 -39
c33 -20 55 -60 50 -89 -3 -14 -18 -15 -98 -13 -52 2 -99 8 -105 13 -14 14 24
81 55 96 35 18 60 16 98 -7z m158 -150 c486 -83 862 -396 975 -810 25 -91 38
-324 20 -358 l-12 -22 -1227 0 c-942 0 -1231 3 -1240 12 -19 19 -15 218 7 323
87 423 480 767 977 854 151 27 347 27 500 1z m1179 -1240 l0 -25 -1408 -3
c-1245 -2 -1408 0 -1413 13 -4 8 -4 22 0 30 5 13 168 15 1413 13 l1408 -3 0
-25z"></path>
<path d="M4157 5430 l-26 -60 -65 0 c-37 0 -66 -4 -66 -10 0 -6 33 -10 79 -10
161 0 407 -50 576 -118 249 -100 531 -259 706 -398 70 -55 180 -171 207 -216
9 -16 21 -27 27 -25 14 5 19 77 6 77 -6 0 -11 -7 -11 -15 0 -25 -13 -16 -63
45 -26 33 -90 96 -142 140 l-94 81 25 67 c15 37 28 76 31 87 4 20 4 20 -11 1
-9 -11 -16 -23 -16 -28 0 -4 -11 -32 -24 -63 l-25 -55 -83 54 c-46 30 -159 93
-251 141 l-168 87 6 32 6 31 -21 -27 -21 -27 -54 25 c-88 38 -289 93 -388 105
-51 6 -102 15 -115 20 l-22 9 20 52 c23 61 22 58 12 58 -5 0 -20 -27 -35 -60z"></path>
<path d="M5610 5270 c0 -5 5 -10 10 -10 6 0 10 5 10 10 0 6 -4 10 -10 10 -5 0
-10 -4 -10 -10z"></path>
<path d="M5650 5263 c0 -5 7 -17 15 -27 12 -16 18 -17 28 -7 10 10 8 15 -7 27
-22 15 -36 18 -36 7z"></path>
<path d="M5710 5244 c0 -10 44 -43 58 -44 22 0 13 19 -18 35 -31 16 -40 18
-40 9z"></path>
<path d="M5600 4730 c0 -22 5 -40 10 -40 6 0 10 18 10 40 0 22 -4 40 -10 40
-5 0 -10 -18 -10 -40z"></path>
<path d="M5575 4455 c-7 -93 -4 -128 9 -114 9 10 17 219 8 219 -6 0 -13 -47
-17 -105z"></path>
<path d="M6673 4255 c-41 -18 -81 -78 -99 -152 -17 -65 -65 -182 -76 -183 -4
0 -12 19 -19 42 -17 65 -55 132 -89 162 -84 70 -308 -10 -298 -106 3 -31 1
-33 -24 -30 -33 4 -85 -22 -92 -45 -20 -74 -13 -207 19 -315 23 -78 71 -171
107 -204 46 -43 82 -53 153 -42 56 8 59 8 87 -18 15 -15 28 -31 28 -36 0 -10
-152 2 -167 14 -7 5 -14 5 -18 -2 -3 -5 -22 -10 -41 -10 -74 0 -122 -92 -126
-238 -1 -65 -4 -75 -22 -82 -94 -36 -210 -205 -251 -364 -8 -33 -19 -64 -23
-68 -5 -5 -35 7 -67 26 -68 42 -186 88 -270 107 -51 11 -67 21 -115 69 -75 77
-210 168 -210 142 0 -5 30 -29 68 -53 107 -69 168 -136 189 -208 10 -33 22
-61 27 -61 7 0 4 25 -10 73 -9 31 22 29 131 -7 134 -45 213 -91 292 -169 70
-69 97 -72 34 -4 -50 54 -51 73 -12 183 55 159 134 270 225 313 48 24 83 26
141 10 71 -20 72 -27 16 -79 -28 -26 -51 -53 -51 -61 0 -7 21 7 48 32 69 66
113 96 161 109 105 28 224 -33 268 -137 43 -103 -17 -350 -148 -613 -157 -315
-380 -530 -569 -547 -119 -11 -295 34 -384 99 -21 15 -43 28 -49 28 -17 0 13
-28 48 -45 19 -9 35 -20 35 -25 0 -13 2 -14 -108 15 -168 43 -308 103 -369
158 -13 11 -26 17 -29 14 -12 -12 40 -279 111 -572 60 -244 175 -750 196 -852
17 -90 19 -116 10 -127 -21 -25 -288 -152 -411 -196 -230 -82 -531 -146 -777
-165 -51 -4 -93 -12 -93 -18 0 -23 427 35 615 83 213 56 433 142 617 244 96
52 92 44 68 131 -5 17 -16 68 -25 115 -9 47 -32 150 -50 230 -19 80 -53 224
-75 320 -22 96 -54 231 -70 300 -16 69 -38 175 -50 235 -12 61 -28 134 -36
164 -8 30 -12 57 -9 60 3 2 22 -5 43 -18 163 -98 621 -212 792 -197 272 23
586 416 720 901 30 110 32 128 27 216 -4 66 -2 113 8 150 22 89 28 139 16 139
-6 0 -11 -7 -11 -16 0 -29 -32 -154 -39 -154 -4 0 -26 17 -48 39 -45 42 -116
71 -172 71 -20 -1 -60 -9 -89 -19 -52 -18 -55 -18 -103 0 -27 11 -70 19 -95
19 l-47 0 5 83 c6 98 36 173 77 189 16 6 83 8 169 5 l144 -5 -46 40 c-30 27
-46 49 -46 64 0 28 0 28 -36 9 -45 -23 -125 -19 -165 8 -78 52 -149 248 -149
411 0 104 13 126 74 126 31 0 48 -6 63 -22 35 -39 42 -62 49 -159 8 -107 16
-129 47 -129 20 0 59 -9 157 -36 22 -7 23 -6 12 9 -8 9 -29 21 -47 27 -31 10
-34 14 -29 39 3 16 1 70 -6 120 -11 87 -11 92 10 126 26 43 19 57 -13 27 -18
-17 -36 -22 -81 -22 -50 0 -61 4 -87 29 -16 16 -29 39 -29 51 0 32 50 73 112
93 71 22 103 22 142 -2 38 -24 55 -52 91 -155 l29 -79 -22 -15 c-12 -8 -22
-17 -22 -21 0 -3 30 -6 68 -6 79 -1 127 -22 187 -84 37 -38 72 -59 45 -26 -18
22 -5 57 43 111 33 37 46 63 56 107 12 57 51 117 75 117 7 0 23 -11 35 -24 38
-40 38 -98 1 -217 -82 -265 -224 -479 -347 -525 -26 -10 -49 -19 -51 -20 -2
-1 17 -22 42 -47 38 -37 46 -51 46 -81 0 -20 5 -36 11 -36 8 0 10 16 6 47 -4
38 -12 53 -36 74 -17 14 -31 28 -31 31 0 4 16 12 37 19 100 33 231 218 322
454 68 178 68 292 -1 337 -18 12 -24 25 -25 53 -2 60 -57 99 -105 74 -18 -10
-24 -9 -33 6 -34 58 -64 71 -112 50z m77 -42 c13 -17 19 -36 16 -48 -15 -60
-56 -159 -73 -178 -11 -12 -37 -48 -57 -80 -26 -42 -41 -57 -52 -53 -9 3 -23
6 -32 6 -45 1 -46 15 -5 106 22 49 48 118 58 152 32 111 98 154 145 95z m140
-52 c17 -33 11 -60 -20 -100 -27 -33 -70 -133 -70 -162 0 -6 -18 -31 -40 -56
-22 -25 -40 -50 -40 -54 0 -17 -25 -8 -58 20 -41 35 -39 45 29 137 30 40 58
91 69 128 27 85 44 106 85 106 24 0 38 -6 45 -19z m-618 -260 c4 -3 8 -55 10
-116 l3 -110 -28 -3 c-45 -5 -54 10 -60 111 -3 50 -9 102 -12 114 -7 20 -4 21
37 16 23 -3 46 -8 50 -12z"></path>
<path d="M1380 4030 c0 -5 11 -10 25 -10 14 0 25 5 25 10 0 6 -11 10 -25 10
-14 0 -25 -4 -25 -10z"></path>
<path d="M1845 4030 c-3 -5 1 -10 9 -10 8 0 18 5 21 10 3 6 -1 10 -9 10 -8 0
-18 -4 -21 -10z"></path>
<path d="M1770 4000 c0 -5 4 -10 9 -10 6 0 13 5 16 10 3 6 -1 10 -9 10 -9 0
-16 -4 -16 -10z"></path>
<path d="M1730 3990 c0 -5 5 -10 10 -10 6 0 10 5 10 10 0 6 -4 10 -10 10 -5 0
-10 -4 -10 -10z"></path>
<path d="M1680 3980 c0 -5 7 -10 15 -10 8 0 15 5 15 10 0 6 -7 10 -15 10 -8 0
-15 -4 -15 -10z"></path>
<path d="M1550 3970 c0 -5 14 -10 30 -10 17 0 30 5 30 10 0 6 -13 10 -30 10
-16 0 -30 -4 -30 -10z"></path>
<path d="M1626 3899 c-30 -35 -31 -47 -12 -94 36 -85 145 -31 122 60 -8 33
-41 65 -65 65 -11 0 -31 -14 -45 -31z m78 -11 c9 -12 16 -33 16 -45 0 -23 -32
-63 -50 -63 -19 0 -50 40 -50 65 0 27 32 65 54 65 8 0 22 -10 30 -22z"></path>
<path d="M6541 3677 c-40 -13 -111 -77 -111 -100 0 -12 13 -4 41 24 42 42 93
69 129 69 11 0 20 5 20 10 0 13 -35 11 -79 -3z"></path>
<path d="M6445 3292 c6 -5 26 -13 45 -17 25 -5 32 -4 25 4 -6 6 -26 14 -45 17
-24 5 -32 3 -25 -4z"></path>
<path d="M6203 3232 c-7 -4 -14 -36 -16 -70 -5 -60 -3 -64 20 -73 13 -5 42 -9
63 -9 30 0 43 6 59 26 48 61 8 134 -71 134 -24 0 -48 -4 -55 -8z m111 -34 c21
-30 20 -50 -4 -76 -37 -40 -100 -17 -100 36 0 57 73 85 104 40z"></path>
<path d="M3865 2558 c-67 -52 -226 -154 -307 -198 -42 -23 -79 -49 -82 -58 -6
-20 -58 -290 -171 -877 -8 -44 -29 -150 -45 -235 -16 -85 -36 -185 -45 -221
-30 -136 -93 -514 -112 -674 l-8 -70 -37 2 c-47 3 -255 82 -383 146 -211 105
-367 228 -381 302 -7 40 -24 57 -24 25 0 -69 61 -140 199 -231 159 -105 379
-207 551 -254 91 -25 100 -23 100 26 0 78 85 574 145 844 13 61 26 124 29 140
6 35 69 370 131 700 24 127 49 263 56 303 l12 73 51 26 c115 58 376 235 376
255 0 14 -14 8 -55 -24z"></path>
<path d="M5340 2540 c0 -11 5 -20 10 -20 6 0 10 9 10 20 0 11 -4 20 -10 20 -5
0 -10 -9 -10 -20z"></path>
<path d="M4964 2218 c4 -13 9 -45 12 -73 10 -93 17 -106 25 -45 4 38 2 64 -7
84 -8 16 -14 35 -14 43 0 7 -5 13 -11 13 -7 0 -9 -9 -5 -22z"></path>
<path d="M3525 2146 c-33 -33 -40 -69 -23 -114 10 -27 22 -39 43 -45 17 -5 51
-20 78 -34 26 -13 47 -20 47 -14 0 6 -10 16 -22 22 -13 6 -25 13 -27 15 -2 2
8 17 23 34 20 24 26 43 26 76 0 41 2 45 20 39 11 -3 20 -2 20 2 0 11 -102 43
-136 43 -14 0 -36 -11 -49 -24z m98 -9 c10 -6 20 -28 23 -47 5 -28 1 -40 -20
-63 -44 -48 -98 -28 -112 40 -11 58 62 105 109 70z"></path>
<path d="M3956 2049 c-51 -60 -20 -159 49 -159 15 0 38 -9 52 -20 14 -11 33
-20 42 -20 13 1 13 3 -3 15 -10 8 -24 16 -30 18 -6 2 2 18 17 37 22 25 28 42
26 69 -2 20 1 42 5 49 9 16 11 14 -35 30 -61 21 -94 16 -123 -19z m109 -9 c26
-28 23 -75 -5 -105 -41 -44 -93 -24 -106 41 -13 64 68 111 111 64z"></path>
<path d="M5000 1990 c0 -11 5 -20 10 -20 6 0 10 9 10 20 0 11 -4 20 -10 20 -5
0 -10 -9 -10 -20z"></path>
<path d="M4615 1930 c3 -5 13 -10 21 -10 8 0 12 5 9 10 -3 6 -13 10 -21 10 -8
0 -12 -4 -9 -10z"></path>
<path d="M3452 1623 c-20 -8 -42 -59 -42 -98 0 -41 36 -85 69 -85 11 0 35 -9
53 -20 36 -22 48 -25 48 -11 0 5 -9 13 -20 16 -26 8 -25 22 2 45 16 13 23 30
24 64 1 26 4 49 7 52 2 2 16 0 31 -5 14 -6 26 -7 26 -2 0 8 -19 17 -91 40 -36
11 -84 13 -107 4z m103 -47 c8 -19 12 -43 8 -53 -11 -31 -46 -63 -69 -63 -27
0 -64 44 -64 75 0 39 37 75 76 75 30 0 37 -5 49 -34z"></path>
<path d="M3816 1569 c-53 -62 -21 -143 62 -159 25 -4 42 -4 42 2 0 6 9 21 20
35 13 17 20 41 20 70 0 42 1 43 26 37 47 -12 18 12 -35 30 -75 24 -105 21
-135 -15z m106 -6 c39 -35 6 -123 -48 -123 -25 0 -64 43 -64 70 0 10 9 29 21
44 24 30 63 34 91 9z"></path>
<path d="M3374 1062 c-74 -60 -49 -152 48 -177 42 -10 45 -10 40 7 -2 10 1 18
7 18 17 0 43 60 38 87 -3 18 1 27 17 33 21 8 21 8 1 15 -11 3 -35 13 -53 21
-43 18 -72 17 -98 -4z m94 -24 c6 -6 12 -26 12 -46 0 -68 -71 -108 -104 -60
-50 72 25 158 92 106z"></path>
<path d="M3784 1020 c-40 -16 -66 -61 -61 -104 7 -50 24 -66 92 -87 45 -14 54
-14 44 -3 -9 11 -8 19 7 35 10 11 21 41 24 67 4 42 8 47 28 44 43 -6 21 15
-35 34 -76 25 -75 24 -99 14z m68 -37 c39 -35 6 -123 -47 -123 -30 0 -58 34
-58 70 0 59 63 91 105 53z"></path>
<path d="M2400 721 c0 -23 195 -163 300 -216 44 -22 182 -75 197 -75 2 0 3 5
3 10 0 6 -5 10 -12 10 -6 0 -66 27 -132 59 -125 61 -286 162 -320 199 -20 23
-36 28 -36 13z"></path>
<path d="M3245 555 c-35 -34 -35 -112 -2 -143 13 -12 30 -22 39 -22 9 0 33 -7
54 -16 37 -15 38 -15 22 2 -15 16 -15 19 4 45 12 15 22 45 24 66 2 34 5 38 28
36 45 -3 28 12 -38 35 -81 28 -101 28 -131 -3z m103 -17 c20 -17 15 -79 -10
-105 -26 -28 -52 -29 -78 -3 -62 62 20 162 88 108z"></path>
<path d="M3653 500 c-25 -10 -53 -58 -53 -90 0 -37 29 -79 58 -85 15 -3 42
-13 60 -22 35 -18 52 -13 27 7 -14 12 -14 15 2 32 9 11 20 40 23 66 5 41 8 47
28 45 41 -5 22 14 -37 36 -63 23 -75 24 -108 11z m79 -37 c25 -22 23 -71 -4
-100 -31 -33 -64 -30 -88 10 -25 40 -25 48 1 81 24 30 63 34 91 9z"></path>
<path d="M2925 420 c3 -5 13 -10 21 -10 8 0 14 5 14 10 0 6 -9 10 -21 10 -11
0 -17 -4 -14 -10z"></path>
<path d="M3410 193 c0 -6 47 -18 104 -27 119 -18 136 -19 136 -8 0 5 -42 14
-92 21 -51 7 -105 15 -120 18 -16 3 -28 1 -28 -4z"></path>
<path d="M3102 138 c3 -26 9 -33 42 -45 95 -32 395 -83 493 -83 80 0 44 17
-49 23 -121 8 -314 42 -397 70 -53 18 -67 27 -69 45 -5 34 -24 26 -20 -10z"></path>
<path d="M3670 150 c0 -5 18 -10 40 -10 22 0 40 5 40 10 0 6 -18 10 -40 10
-22 0 -40 -4 -40 -10z"></path>
<path d="M3780 140 c0 -6 32 -10 75 -10 43 0 75 4 75 10 0 6 -32 10 -75 10
-43 0 -75 -4 -75 -10z"></path>
<path d="M4050 140 c0 -5 18 -10 40 -10 22 0 40 5 40 10 0 6 -18 10 -40 10
-22 0 -40 -4 -40 -10z"></path>
<path d="M3805 10 c-4 -6 13 -10 45 -10 32 0 49 4 45 10 -3 6 -24 10 -45 10
-21 0 -42 -4 -45 -10z"></path>
</g>
</svg>