<?xml version="1.0" encoding="utf-8"?>
<!-- Generator: Adobe Illustrator 19.0.0, SVG Export Plug-In . SVG Version: 6.00 Build 0)  -->
<svg version="1.1" id="Layer_1" xmlns="http://www.w3.org/2000/svg" xmlns:xlink="http://www.w3.org/1999/xlink" x="0px" y="0px"
	 viewBox="0 0 500 500" style="enable-background:new 0 0 500 500;" xml:space="preserve">
<style type="text/css">
	.st0{fill:#414042;}
</style>
<g id="XMLID_2_">
	<g id="XMLID_1_">
		<path id="XMLID_29_" class="st0" d="M132.9,68.1l-59.1,64.5c-5,5.5,1.1,16.7,10.2,18.9l83.6,20.3c3.4,0.8,6.5,0.1,8.3-1.9l7.5-8.2
			c2-2.2,2.3-5.7,0.8-9.4l-32-76.6C148.8,67.2,137.7,62.9,132.9,68.1z M129.1,149.6c-0.7,1.2-2.2,1.8-3.2,1.4l-31.5-13.8
			c-1.1-0.5-1.3-1.8-0.6-3.1c0.7-1.2,2.2-1.8,3.2-1.4l31.5,13.8C129.5,147,129.8,148.4,129.1,149.6z M142.8,131.7
			c1.1,1,1.1,2.6,0.2,3.7c-1,1.1-2.6,1.1-3.7,0.2l-24.1-22c-1.1-1-1.1-2.6-0.2-3.7c1-1.1,2.6-1.1,3.7-0.2L142.8,131.7z M139.2,88.1
			l16.5,30.2c0.6,1,0.1,2.5-1.1,3.3c-1.2,0.8-2.5,0.7-3.1-0.3L135,91.1c-0.6-1-0.1-2.5,1.1-3.3C137.3,86.9,138.7,87.1,139.2,88.1z"
			/>
		<g id="XMLID_4_">
			<path id="XMLID_5_" class="st0" d="M199.7,194.9c0-6.9,4.1-12.8,10-15.5c-8.7-7.9-17.4-15.9-26.1-23.8l-13.5,14.7l29.6,27V194.9z
				"/>
			<path id="XMLID_6_" class="st0" d="M386,340.6c-28.6-26.1-57.1-52.2-85.7-78.3v27l72.2,66c4.1,1.2,8.5,0,11.4-3.1
				S387.6,344.5,386,340.6z"/>
		</g>
	</g>
	<g id="XMLID_8_">
		<path id="XMLID_11_" class="st0" d="M199.7,265.2l-87.4,79.7c-1.6,3.9-0.8,8.5,2.1,11.6s7.3,4.4,11.4,3.1
			c24.7-22.5,49.3-45,74-67.4V265.2z"/>
		<path id="XMLID_32_" class="st0" d="M408.7,77.4C397.2,66.8,380,59.5,364.8,62c-28.5,4.7-54.1,44.6-49.9,98.1l-22.4,20.4
			c4.7,3,7.9,8.3,7.9,14.4v5.5c9.3-8.5,18.7-17,28-25.5c52.5,7.4,93.4-18.2,98.9-47.5C430.3,111.4,423.3,90.9,408.7,77.4z
			 M389.9,76.5c-1,1-2.7,1.1-3.9,0.1c-8.9-3.1-15.8-2.4-19.6-1.6c-17.2,3.5-31,20.7-34.9,43.2c-0.5,1.2-1.7,2-2.6,1.8
			c-1.2-0.2-2.2-1.9-1.5-3.7c3.9-24.9,19.6-43.6,38.6-46.9c10-1.7,18.8,1.1,24.4,3.8C391,74.3,390.8,75.7,389.9,76.5z"/>
	</g>
	<path id="XMLID_17_" class="st0" d="M280.9,180.8h-61.9c-8.8,0-15.9,7.1-15.9,15.9v102.5c0,8.8,7.1,15.9,15.9,15.9h61.9
		c8.8,0,15.9-7.1,15.9-15.9V196.7C296.9,188,289.7,180.8,280.9,180.8z M213.3,201.7h73.4v19.6h-73.4V201.7z M233.8,290.5
		c0,2.5-2,4.6-4.6,4.6h-11.4c-2.5,0-4.6-2-4.6-4.6v0c0-2.5,2-4.6,4.6-4.6h11.4C231.7,285.9,233.8,288,233.8,290.5L233.8,290.5z
		 M233.8,269.1c0,2.5-2,4.6-4.6,4.6h-11.4c-2.5,0-4.6-2-4.6-4.6v0c0-2.5,2-4.6,4.6-4.6h11.4C231.7,264.6,233.8,266.6,233.8,269.1
		L233.8,269.1z M233.8,247.8c0,2.5-2,4.6-4.6,4.6h-11.4c-2.5,0-4.6-2-4.6-4.6v0c0-2.5,2-4.6,4.6-4.6h11.4
		C231.7,243.2,233.8,245.3,233.8,247.8L233.8,247.8z M260.2,290.5c0,2.5-2,4.6-4.6,4.6h-11.4c-2.5,0-4.6-2-4.6-4.6v0
		c0-2.5,2-4.6,4.6-4.6h11.4C258.2,285.9,260.2,288,260.2,290.5L260.2,290.5z M260.2,269.1c0,2.5-2,4.6-4.6,4.6h-11.4
		c-2.5,0-4.6-2-4.6-4.6v0c0-2.5,2-4.6,4.6-4.6h11.4C258.2,264.6,260.2,266.6,260.2,269.1L260.2,269.1z M260.2,247.8
		c0,2.5-2,4.6-4.6,4.6h-11.4c-2.5,0-4.6-2-4.6-4.6v0c0-2.5,2-4.6,4.6-4.6h11.4C258.2,243.2,260.2,245.3,260.2,247.8L260.2,247.8z
		 M286.7,290.5c0,2.5-2,4.6-4.6,4.6h-11.4c-2.5,0-4.6-2-4.6-4.6v0c0-2.5,2-4.6,4.6-4.6h11.4C284.7,285.9,286.7,288,286.7,290.5
		L286.7,290.5z M286.7,269.1c0,2.5-2,4.6-4.6,4.6h-11.4c-2.5,0-4.6-2-4.6-4.6v0c0-2.5,2-4.6,4.6-4.6h11.4
		C284.7,264.6,286.7,266.6,286.7,269.1L286.7,269.1z M286.7,247.8c0,2.5-2,4.6-4.6,4.6h-11.4c-2.5,0-4.6-2-4.6-4.6v0
		c0-2.5,2-4.6,4.6-4.6h11.4C284.7,243.2,286.7,245.3,286.7,247.8L286.7,247.8z"/>
</g>
</svg>
